<?xml version="1.0" encoding="UTF-8" standalone="no"?>
<!-- Created with Inkscape (http://www.inkscape.org/) -->

<svg
   id="svg2"
   viewBox="0 0 605.57147 629.66248"
   version="1.1"
   sodipodi:docname="cvijets.svg"
   width="605.57147"
   height="629.66248"
   inkscape:version="1.3.2 (091e20ef0f, 2023-11-25)"
   xmlns:inkscape="http://www.inkscape.org/namespaces/inkscape"
   xmlns:sodipodi="http://sodipodi.sourceforge.net/DTD/sodipodi-0.dtd"
   xmlns="http://www.w3.org/2000/svg"
   xmlns:svg="http://www.w3.org/2000/svg"
   xmlns:rdf="http://www.w3.org/1999/02/22-rdf-syntax-ns#"
   xmlns:cc="http://creativecommons.org/ns#"
   xmlns:dc="http://purl.org/dc/elements/1.1/">
  <defs
     id="defs1" />
  <sodipodi:namedview
     id="namedview1"
     pagecolor="#ffffff"
     bordercolor="#000000"
     borderopacity="0.25"
     inkscape:showpageshadow="2"
     inkscape:pageopacity="0.0"
     inkscape:pagecheckerboard="0"
     inkscape:deskcolor="#d1d1d1"
     inkscape:zoom="0.52249848"
     inkscape:cx="413.39834"
     inkscape:cy="345.45555"
     inkscape:window-width="1920"
     inkscape:window-height="1011"
     inkscape:window-x="0"
     inkscape:window-y="0"
     inkscape:window-maximized="1"
     inkscape:current-layer="layer1" />
  <metadata
     id="metadata1">
    <rdf:RDF>
      <cc:Work>
        <dc:format>image/svg+xml</dc:format>
        <dc:type
           rdf:resource="http://purl.org/dc/dcmitype/StillImage" />
        <cc:license
           rdf:resource="http://creativecommons.org/licenses/publicdomain/" />
        <dc:publisher>
          <cc:Agent
             rdf:about="http://openclipart.org/">
            <dc:title>Openclipart</dc:title>
          </cc:Agent>
        </dc:publisher>
        <dc:date>2011-07-10T19:49:56</dc:date>
        <dc:description>football 5 petal flower</dc:description>
        <dc:source>https://openclipart.org/detail/148885/football-5-petal-flower-by-10binary</dc:source>
        <dc:creator>
          <cc:Agent>
            <dc:title>10binary</dc:title>
          </cc:Agent>
        </dc:creator>
        <dc:subject>
          <rdf:Bag>
            <rdf:li>5</rdf:li>
            <rdf:li>flower</rdf:li>
            <rdf:li>football</rdf:li>
            <rdf:li>petal</rdf:li>
          </rdf:Bag>
        </dc:subject>
      </cc:Work>
      <cc:License
         rdf:about="http://creativecommons.org/licenses/publicdomain/">
        <cc:permits
           rdf:resource="http://creativecommons.org/ns#Reproduction" />
        <cc:permits
           rdf:resource="http://creativecommons.org/ns#Distribution" />
        <cc:permits
           rdf:resource="http://creativecommons.org/ns#DerivativeWorks" />
      </cc:License>
    </rdf:RDF>
  </metadata>
  <g
     inkscape:groupmode="layer"
     id="layer1"
     inkscape:label="Layer 1"
     transform="translate(-37.622525,-71.699466)">
    <path
       id="path1"
       style="fill:#008000;stroke-width:4.2514"
       d="m 276.40081,71.699466 c -45.69984,47.697824 -65.57399,117.793524 -45.85143,185.798294 3.82646,13.19513 8.96882,25.6424 15.21577,37.26996 -0.0649,-0.12071 -0.1382,-0.23508 -0.20291,-0.35597 -12.65353,-3.08213 -25.76489,-4.94164 -39.30624,-5.37372 -70.73139,-2.25565 -133.731575,34.15603 -168.633475,90.19288 l 0.0025,0.001 c 31.241442,58.20134 91.762695,98.7664 162.533515,101.02084 13.84664,0.44163 27.3832,-0.62379 40.4732,-3.01379 -0.24298,0.0444 -0.48019,0.10533 -0.72349,0.14878 -6.84155,11.08168 -12.66124,22.97697 -17.25632,35.72225 -24.00247,66.56945 -8.8421,137.74327 33.6679,188.24993 l 5.6e-4,0.002 c 65.00725,-11.72732 122.28803,-56.75203 146.30192,-123.36148 4.94352,-13.71076 8.1904,-27.61083 9.89958,-41.48312 -0.11415,0.92696 -0.18007,1.85268 -0.3082,2.77981 8.42531,9.93103 17.94031,19.14379 28.6414,27.45246 55.89431,43.39739 128.26565,50.97213 189.44008,26.15318 8.93493,-65.44872 -16.18391,-133.83959 -72.11154,-177.2633 -10.97637,-8.52232 -22.59423,-15.63274 -34.62882,-21.4027 0.2586,0.12393 0.52335,0.22772 0.78156,0.3529 12.0482,-4.94398 23.75111,-11.14558 34.96021,-18.75544 58.54919,-39.74925 88.11735,-106.23836 83.41103,-172.08665 -59.48376,-28.72313 -132.28985,-25.96568 -190.8725,13.80571 -11.69822,7.94206 -22.20843,16.96902 -31.53456,26.82981 0.35003,-0.37007 0.67204,-0.75947 1.02547,-1.12712 -0.9789,-12.98656 -3.2606,-26.03112 -7.03422,-39.04285 C 394.58103,136.24944 340.48007,87.580409 276.40009,71.7038 Z M 415.45764,249.70256 c -0.5131,0.58558 -1.03548,1.16544 -1.54048,1.75637 0.50528,-0.59119 1.02714,-1.17054 1.54048,-1.75637 z M 250.3329,302.78335 c 0.16434,0.27317 0.32481,0.54955 0.49045,0.82169 -0.16571,-0.27216 -0.326,-0.5485 -0.49045,-0.82169 z m 158.35214,-44.91413 c -0.55062,0.70456 -1.09017,1.41688 -1.62993,2.12807 0.5401,-0.71164 1.07894,-1.4231 1.62993,-2.12807 z m -6.04679,8.17987 c -0.41465,0.59373 -0.82534,1.1893 -1.23264,1.7871 0.40738,-0.59782 0.81796,-1.19336 1.23264,-1.7871 z m -146.69962,45.49618 c 0.18912,0.2783 0.38185,0.55333 0.57236,0.83047 -0.19058,-0.2772 -0.38315,-0.55215 -0.57236,-0.83047 z m 141.38734,-37.448 c -0.48298,0.77263 -0.96547,1.54556 -1.4368,2.3242 0.47146,-0.77877 0.95363,-1.55144 1.4368,-2.3242 z m -5.46184,9.28531 c -0.39953,0.72793 -0.77882,1.46508 -1.1685,2.19755 0.38984,-0.73269 0.76875,-1.46943 1.1685,-2.19755 z m -4.20859,8.16529 c -0.33527,0.68743 -0.68672,1.36813 -1.01344,2.0591 0.32695,-0.69126 0.67798,-1.37139 1.01344,-2.0591 z M 268.18727,327.6457 c 0.15687,0.18487 0.31255,0.37087 0.4701,0.55509 -0.1576,-0.18425 -0.31313,-0.37021 -0.4701,-0.55509 z m 115.21624,-26.77092 c -0.37755,0.89273 -0.74618,1.78917 -1.10994,2.68702 0.36397,-0.89818 0.73218,-1.79396 1.10994,-2.68702 z m -108.28384,34.51155 c 0.0471,0.0498 0.0954,0.0981 0.14247,0.14779 -0.0472,-0.0496 -0.0954,-0.0981 -0.14247,-0.14779 z m 104.42853,-24.6794 c -0.28255,0.78607 -0.54399,1.57847 -0.81609,2.36789 0.27227,-0.78956 0.5334,-1.58169 0.81609,-2.36789 z m -2.80241,8.46316 c -0.28963,0.94085 -0.58322,1.88055 -0.85828,2.8255 0.27532,-0.9453 0.56839,-1.88431 0.85828,-2.8255 z m -87.31945,29.82045 c 0.17057,0.14627 0.34204,0.29122 0.5131,0.43687 -0.17112,-0.14571 -0.34247,-0.29057 -0.5131,-0.43687 z m 84.47875,-19.65221 c -0.255,1.02514 -0.48823,2.05512 -0.72633,3.08416 0.23833,-1.02933 0.47106,-2.05873 0.72633,-3.08416 z m -1.97367,8.8736 c -0.22612,1.13479 -0.45306,2.26948 -0.65878,3.40822 0.20594,-1.13906 0.4324,-2.2731 0.65878,-3.40822 z m -66.6812,22.98086 c 0.11053,0.0764 0.21894,0.15571 0.32956,0.23185 -0.11067,-0.0761 -0.21906,-0.15545 -0.32956,-0.23185 z m 64.95142,-12.95787 c -0.16717,1.15261 -0.32607,2.30626 -0.47238,3.46194 0.14654,-1.15597 0.30499,-2.30905 0.47238,-3.46194 z m -56.50722,18.47861 c 0.078,0.0481 0.158,0.093 0.23611,0.14099 -0.0781,-0.0479 -0.15804,-0.0928 -0.23611,-0.14099 z m 55.23671,-7.72047 c -0.0966,1.09562 -0.15905,2.19454 -0.23693,3.29203 0.0781,-1.09783 0.14014,-2.19608 0.23693,-3.29203 z m -37.94383,17.19062 c 0.14982,0.0724 0.29943,0.14537 0.44945,0.21739 -0.15011,-0.072 -0.29958,-0.14493 -0.44945,-0.21739 z m 37.40717,-8.7053 c -0.0521,1.18546 -0.11339,2.37088 -0.14358,3.55773 0.0304,-1.18739 0.0913,-2.37173 0.14358,-3.55773 z m -0.18684,10.70823 c 0.0148,1.26876 0.0515,2.53761 0.0914,3.80688 -0.0397,-1.2695 -0.0768,-2.53785 -0.0914,-3.80688 z m -9.37981,8.88826 c 0.15944,0.0485 0.31932,0.0957 0.47889,0.14375 -0.15962,-0.0481 -0.31941,-0.0952 -0.47889,-0.14375 z m 9.70803,0.11083 c 0.0507,0.86755 0.0844,1.7358 0.14691,2.60312 0.003,-10e-4 0.005,-10e-4 0.008,-0.002 0.4914,0.58322 0.94249,1.19592 1.42661,1.78458 -0.48661,-0.59174 -0.9581,-1.19499 -1.45207,-1.78127 -0.002,-0.003 -0.004,-0.004 -0.006,-0.007 -7e-4,10e-4 -0.003,0.002 -0.003,0.003 -0.0623,-0.86676 -0.0692,-1.73391 -0.11978,-2.60085 z m 18.99899,-3.94413 c 0.14334,-0.0416 0.28939,-0.0721 0.4328,-0.11336 -0.21645,0.0623 -0.43434,0.11964 -0.65072,0.18235 0.0731,-0.0213 0.14467,-0.0482 0.21781,-0.0694 z m -9.07558,2.89032 c -0.32912,0.1134 -0.65684,0.2316 -0.98539,0.34682 0.32871,-0.11526 0.65614,-0.23327 0.98539,-0.34682 z m 27.92501,-7.33612 c 0.36324,-0.0669 0.72651,-0.13133 1.09008,-0.19614 -0.36354,0.0648 -0.7269,0.12926 -1.09008,0.19614 z m 19.75853,-2.59448 c 0.25233,-0.0199 0.50412,-0.0439 0.75656,-0.0628 -0.25239,0.019 -0.50429,0.0429 -0.75656,0.0628 z m 10.1366,-0.53606 c 0.23262,-0.006 0.46509,-0.008 0.69773,-0.0133 -0.2326,0.005 -0.4652,0.007 -0.69773,0.0133 z m -72.77698,21.94643 c -0.20485,0.29614 -0.406,0.59449 -0.61247,0.88937 0.20635,-0.2948 0.40772,-0.59335 0.61247,-0.88937 z m 10.10364,-1.67343 c 0.75406,0.97316 1.50503,1.94692 2.23977,2.93361 -0.73462,-0.98655 -1.48582,-1.96055 -2.23977,-2.93361 z m 82.23832,-19.78334 c 0.38367,0.0291 0.76687,0.0579 1.15047,0.0893 -0.38338,-0.0314 -0.76701,-0.0602 -1.15047,-0.0893 z m -98.46205,29.8328 c -0.13159,0.1699 -0.26856,0.33516 -0.40069,0.50459 0.1321,-0.16938 0.26914,-0.3347 0.40069,-0.50459 z m 108.86551,-28.76855 c 0.15628,0.0205 0.31218,0.0446 0.46843,0.0655 -0.15624,-0.0208 -0.31215,-0.045 -0.46843,-0.0655 z m -86.2353,27.45821 c 0.70213,1.0197 1.37677,2.05538 2.05872,3.08779 -0.68174,-1.03211 -1.35681,-2.06838 -2.05872,-3.08779 z m 95.6572,-25.97099 c 0.30178,0.0551 0.60445,0.10166 0.90609,0.15819 -0.30156,-0.0566 -0.60438,-0.10311 -0.90609,-0.15819 z m -131.12107,42.20438 c -0.20608,0.21647 -0.4125,0.43198 -0.61958,0.64745 0.20701,-0.21541 0.41357,-0.43105 0.61958,-0.64745 z m 140.93207,-40.14672 c 0.47582,0.11299 0.94997,0.23257 1.42519,0.34928 -0.47501,-0.11673 -0.94955,-0.23628 -1.42519,-0.34928 z m -100.73959,31.15833 c 0.70756,1.13318 1.41612,2.26433 2.09972,3.41149 -0.68349,-1.14693 -1.39231,-2.27849 -2.09972,-3.41149 z M 330.1881,434.5237 c -0.2093,0.17898 -0.41689,0.35963 -0.62698,0.53774 0.21003,-0.17805 0.41774,-0.35883 0.62698,-0.53774 z m 174.48268,-48.1118 c 0.4636,0.16332 0.92786,0.32234 1.3906,0.48946 -0.46264,-0.16719 -0.92706,-0.32607 -1.3906,-0.48946 z m -114.5396,34.67858 c 0.62391,1.1337 1.23464,2.27322 1.83553,3.41896 -0.60079,-1.14554 -1.21173,-2.28549 -1.83553,-3.41896 z m -67.79941,19.80535 c -0.23445,0.18003 -0.47194,0.35554 -0.70723,0.53454 0.23522,-0.17893 0.47286,-0.35453 0.70723,-0.53454 z M 514.54472,390.1941 c 0.42906,0.17873 0.85434,0.36925 1.28242,0.55133 -0.42801,-0.1821 -0.85347,-0.37256 -1.28242,-0.55133 z m -208.43944,61.88471 c -0.29494,0.1818 -0.58959,0.36338 -0.88556,0.54359 0.29583,-0.18007 0.59076,-0.3619 0.88556,-0.54359 z m -9.00161,5.22789 c -0.12439,0.0676 -0.25108,0.13108 -0.37563,0.19841 0.12451,-0.0673 0.25124,-0.13081 0.37563,-0.19841 z m 97.39976,-27.77379 c 0.71776,1.47119 1.41301,2.95144 2.09311,4.44038 -0.6799,-1.48852 -1.37555,-2.96958 -2.09311,-4.44038 z m -106.00475,32.16065 c -0.21584,0.10347 -0.42848,0.21237 -0.64476,0.31509 0.21622,-0.10265 0.42899,-0.21169 0.64476,-0.31509 z m -9.09125,4.07029 c -0.3976,0.16573 -0.7973,0.32624 -1.19621,0.48929 0.39872,-0.16294 0.79877,-0.32376 1.19621,-0.48929 z m -30.31562,9.72345 c 0.43784,-0.10087 0.87858,-0.19217 1.31529,-0.29605 -0.43667,0.10387 -0.87749,0.19519 -1.31529,0.29605 z m 11.53111,-3.04121 c -0.47047,0.14052 -0.93956,0.28293 -1.41165,0.41955 0.47194,-0.13652 0.94134,-0.27908 1.41165,-0.41955 z m 137.96746,-33.96093 c 0.50047,1.1742 1.00224,2.3463 1.47937,3.53036 -0.47697,-1.18367 -0.97905,-2.35656 -1.47937,-3.53036 z m 3.97953,10.07545 c 0.43665,1.20842 0.84733,2.42547 1.25984,3.64285 -0.41244,-1.21717 -0.82333,-2.43461 -1.25984,-3.64285 z m 2.78874,8.36071 c 0.49248,1.58677 0.96697,3.17827 1.41836,4.77841 -0.45131,-1.59989 -0.926,-3.19187 -1.41836,-4.77841 z m 2.84436,10.11592 c 0.31956,1.27177 0.63027,2.54456 0.92385,3.82364 -0.29339,-1.27843 -0.60451,-2.55251 -0.92385,-3.82364 z m 2.33545,10.47904 c 0.24283,1.26233 0.4533,2.53112 0.6708,3.79943 -0.21737,-1.26799 -0.42807,-2.53743 -0.6708,-3.79943 z m 1.45151,8.72821 c 0.17749,1.22709 0.36347,2.45155 0.51713,3.68335 -0.15355,-1.23143 -0.33976,-2.45667 -0.51713,-3.68335 z m 1.25819,10.78942 c 0.11223,1.29392 0.20199,2.5902 0.28778,3.88816 -0.0857,-1.29782 -0.17564,-2.59438 -0.28778,-3.88816 z m 0.54991,9.02024 c 0.0709,1.82486 0.11578,3.65133 0.13391,5.48239 -0.018,-1.83061 -0.0631,-3.65801 -0.13391,-5.48239 z m 0.12311,10.52886 c -0.0225,1.34346 -0.0504,2.6859 -0.10176,4.03163 0.0514,-1.34536 0.0791,-2.68862 0.10176,-4.03163 z m -0.50065,11.12667 c -0.10237,1.34904 -0.23968,2.6986 -0.37132,4.04881 0.13172,-1.34993 0.26886,-2.70006 0.37132,-4.04881 z" />
    <path
       id="path2"
       style="fill:#ffff00;stroke-width:3.08477"
       d="m 169.31672,231.63249 c -6.60839,47.47263 11.49006,97.14356 51.98802,128.75821 7.85803,6.13397 16.17152,11.26979 24.78665,15.45369 -0.0899,-0.0428 -0.18125,-0.0796 -0.27058,-0.12312 -8.75166,3.5644 -17.25305,8.04242 -25.40076,13.54268 -42.55781,28.73052 -64.13708,76.91718 -60.85121,124.70568 l 0.001,-6e-5 c 43.10662,20.954 95.93909,19.09316 138.51962,-9.65487 8.33131,-5.62438 15.83983,-12.00332 22.52283,-18.97153 -0.12433,0.12912 -0.23845,0.26538 -0.36232,0.39492 0.6854,9.42478 2.31756,18.89383 5.03113,28.34239 14.17198,49.35137 53.33346,84.76852 99.79763,96.4085 l 7.9e-4,6.1e-4 c 33.24926,-34.5219 47.8047,-85.3437 33.62243,-134.72345 -2.91892,-10.16446 -6.91615,-19.71928 -11.80594,-28.60431 0.32682,0.59363 0.6814,1.16614 1.00003,1.76586 9.17536,2.26044 18.68636,3.63535 28.51077,3.97453 51.31481,1.77115 97.09752,-24.52799 122.52931,-65.12074 -22.55742,-42.28931 -66.39316,-71.83788 -117.73877,-73.61036 -10.07709,-0.34786 -19.93147,0.40728 -29.46133,2.12788 0.20469,-0.037 0.40451,-0.0885 0.60965,-0.12454 4.98498,-8.02758 9.23246,-16.64806 12.59109,-25.88694 17.54316,-48.25817 6.67869,-99.92741 -24.07137,-136.65488 -47.19007,8.38456 -88.83782,40.94513 -106.39131,89.23051 -3.50511,9.6421 -5.85049,19.41743 -7.14515,29.18001 0.0485,-0.36646 0.0725,-0.73227 0.12414,-1.0987 -6.09434,-7.2218 -12.97954,-13.92411 -20.72825,-19.97311 -40.47381,-31.59549 -92.97394,-37.22932 -137.40808,-19.33617 z m 157.42571,45.59715 c -0.0528,0.56251 -0.11374,1.12546 -0.15963,1.68762 0.046,-0.56243 0.10668,-1.12493 0.15963,-1.68762 z m -74.55837,101.38793 c 0.2127,0.091 0.42463,0.18512 0.63771,0.27475 -0.21295,-0.0897 -0.4248,-0.18408 -0.63771,-0.27475 z m 74.04561,-93.70685 c -0.0244,0.64834 -0.0391,1.29659 -0.0543,1.94422 0.0152,-0.64807 0.0298,-1.29546 0.0543,-1.94422 z m -0.0803,7.38041 c 0.008,0.52538 0.02,1.05019 0.0345,1.57485 -0.0144,-0.52471 -0.026,-1.04945 -0.0345,-1.57485 z m -66.94506,89.09746 c 0.22959,0.0834 0.4597,0.16319 0.68956,0.24518 -0.22986,-0.0821 -0.46002,-0.16187 -0.68956,-0.24518 z m 67.24079,-82.10665 c 0.0443,0.65966 0.089,1.31929 0.14264,1.9775 -0.0537,-0.65835 -0.0984,-1.31768 -0.14264,-1.9775 z m 0.73351,7.78198 c 0.0744,0.5979 0.16454,1.19264 0.24663,1.78901 -0.0821,-0.59656 -0.17232,-1.19091 -0.24663,-1.78901 z m 0.99462,6.5907 c 0.095,0.54678 0.17751,1.09646 0.27898,1.64169 -0.10146,-0.54548 -0.18402,-1.09468 -0.27898,-1.64169 z m -54.92326,71.99809 c 0.17067,0.042 0.3414,0.0853 0.5123,0.12678 -0.17105,-0.0416 -0.3415,-0.0846 -0.5123,-0.12678 z m 56.38598,-64.70575 c 0.15734,0.68548 0.3214,1.36936 0.48904,2.05198 -0.16763,-0.68291 -0.33173,-1.36621 -0.48904,-2.05198 z M 280.6165,387.2593 c 0.048,0.0101 0.0977,0.0172 0.14652,0.0263 -0.048,-0.0101 -0.0977,-0.0172 -0.14652,-0.0263 z m 50.93016,-58.89145 c 0.16788,0.58238 0.35085,1.15953 0.52632,1.73943 -0.17541,-0.58007 -0.35843,-1.15693 -0.52632,-1.73943 z m 1.94822,6.16834 c 0.22947,0.67642 0.45611,1.35384 0.69591,2.02647 -0.2398,-0.67293 -0.46647,-1.34973 -0.69591,-2.02647 z m -38.68311,54.64457 c 0.16254,0.0134 0.32494,0.0259 0.48744,0.0389 -0.16248,-0.013 -0.32489,-0.0255 -0.48744,-0.0389 z m 41.33338,-47.45717 c 0.2857,0.71127 0.58618,1.41615 0.88344,2.12255 -0.29727,-0.70666 -0.5978,-1.41099 -0.88344,-2.12255 z m 2.61006,6.05755 c 0.34924,0.76348 0.69795,1.52728 1.06086,2.28442 -0.36293,-0.75743 -0.71163,-1.52063 -1.06086,-2.28442 z m -29.45159,41.85181 c 0.0976,-0.002 0.19495,-0.002 0.29251,-0.004 -0.0976,0.002 -0.19496,0.002 -0.29251,0.004 z m 32.6935,-35.2219 c 0.39147,0.74891 0.78828,1.49493 1.19333,2.23679 -0.40504,-0.74213 -0.80188,-1.48762 -1.19333,-2.23679 z m -25.38118,34.88046 c 0.0664,-0.005 0.13257,-0.0123 0.19874,-0.0174 -0.0664,0.005 -0.13232,0.0125 -0.19874,0.0174 z m 29.20562,-28.01338 c 0.40877,0.68541 0.839,1.35826 1.25958,2.03682 -0.42052,-0.67891 -0.85078,-1.35113 -1.25958,-2.03682 z m -15.01082,26.2345 c 0.11895,-0.0211 0.23794,-0.0416 0.35683,-0.0631 -0.11891,0.0215 -0.2379,0.0421 -0.35683,0.0631 z m 18.30102,-21.01598 c 0.47317,0.71926 0.94079,1.44259 1.42738,2.15343 -0.48663,-0.71135 -0.95417,-1.43367 -1.42738,-2.15343 z m 4.44055,6.37725 c 0.54782,0.73994 1.10863,1.47057 1.67145,2.20012 -0.56283,-0.72974 -1.1236,-1.45995 -1.67145,-2.20012 z m -1.73952,9.21339 c 0.11424,-0.0394 0.22845,-0.0795 0.34293,-0.11896 -0.11431,0.0394 -0.22819,0.0798 -0.34293,0.11896 z m 5.7567,-4.06021 c 0.39845,0.48872 0.78718,0.9851 1.19259,1.46854 0.002,-0.002 0.002,-0.003 0.005,-0.006 0.53685,0.13418 1.06251,0.30285 1.59739,0.44333 -0.53772,-0.14113 -1.0713,-0.29567 -1.61096,-0.43056 -0.002,-4.1e-4 -0.003,-1.3e-4 -0.008,-0.002 9e-5,0.001 -4e-4,0.002 -0.001,0.003 -0.405,-0.48327 -0.77746,-0.99044 -1.17566,-1.47873 z m 9.49784,-10.39326 c 0.0666,-0.0854 0.14019,-0.16491 0.20683,-0.25024 -0.10088,0.12867 -0.20354,0.25577 -0.30416,0.3846 0.0339,-0.0436 0.0657,-0.0889 0.0996,-0.13236 z m -4.10948,5.55645 c -0.14561,0.20646 -0.28855,0.41483 -0.43213,0.62274 0.14309,-0.20841 0.28609,-0.41655 0.43213,-0.62274 z M 376.26396,357.009 c 0.18595,-0.19296 0.37137,-0.38604 0.55777,-0.57858 -0.18596,0.19295 -0.37248,0.38499 -0.55777,0.57858 z m 10.51807,-9.92224 c 0.13986,-0.11894 0.27773,-0.24013 0.41832,-0.35842 -0.1404,0.11857 -0.27823,0.23963 -0.41832,0.35842 z m 5.73385,-4.62282 c 0.13425,-0.10221 0.27024,-0.20226 0.40468,-0.30433 -0.13473,0.10183 -0.27065,0.20182 -0.40468,0.30433 z m -33.4763,43.83383 c 0.005,0.26131 0.0138,0.52216 0.0177,0.78333 -0.004,-0.26104 -0.0124,-0.52221 -0.0177,-0.78333 z m 5.23116,-5.27773 c 0.85703,0.25191 1.71248,0.50549 2.5639,0.77357 -0.85128,-0.26806 -1.70699,-0.52166 -2.5639,-0.77357 z m 39.95998,-46.58222 c 0.2381,-0.14595 0.47558,-0.29188 0.71471,-0.43628 -0.23871,0.14436 -0.47681,0.29046 -0.71471,0.43628 z m -45.23117,59.38687 c -0.005,0.15598 -0.0155,0.31113 -0.0213,0.46697 0.006,-0.15563 0.016,-0.3112 0.0213,-0.46697 z m 51.80203,-63.18189 c 0.10083,-0.0543 0.20251,-0.10648 0.30337,-0.1605 -0.10055,0.0541 -0.20276,0.10625 -0.30337,0.1605 z m -39.04934,52.79457 c 0.84626,0.30137 1.68317,0.62378 2.52297,0.94117 -0.83957,-0.31728 -1.67694,-0.6399 -2.52297,-0.94117 z m 45.22263,-55.9237 c 0.20094,-0.0959 0.39879,-0.197 0.60013,-0.292 -0.20128,0.0949 -0.39929,0.1962 -0.60013,0.292 z m -59.18166,80.54137 c -0.0292,0.21479 -0.0589,0.42943 -0.0893,0.64408 0.0302,-0.2147 0.06,-0.4293 0.0893,-0.64408 z m 65.82622,-83.50037 c 0.32787,-0.13573 0.65755,-0.26689 0.98662,-0.40021 -0.32906,0.13327 -0.65886,0.26457 -0.98662,0.40021 z m -46.00738,61.13429 c 0.89767,0.36578 1.79509,0.72995 2.68462,1.11414 -0.88945,-0.38402 -1.7871,-0.7484 -2.68462,-1.11414 z m -22.47992,36.47478 c -0.0471,0.19417 -0.0925,0.38861 -0.14026,0.58269 0.0478,-0.19396 0.0932,-0.38857 0.14026,-0.58269 z m 82.17362,-102.44215 c 0.34198,-0.1012 0.68256,-0.20512 1.02572,-0.30353 -0.34324,0.0984 -0.68375,0.20233 -1.02572,0.30353 z m -52.62767,69.06894 c 0.84875,0.40157 1.69212,0.81231 2.53241,1.2308 -0.84021,-0.41835 -1.68388,-0.82925 -2.53241,-1.2308 z m -31.45862,40.45945 c -0.0615,0.20561 -0.12647,0.40966 -0.18882,0.61488 0.0624,-0.20523 0.12747,-0.40943 0.18882,-0.61488 z m 91.50077,-111.49982 c 0.32829,-0.0771 0.65936,-0.14592 0.98853,-0.2207 -0.32925,0.0748 -0.66027,0.14357 -0.98853,0.2207 z m -96.29187,124.97231 c -0.0962,0.23207 -0.19224,0.46432 -0.28979,0.69605 0.0974,-0.23154 0.19379,-0.46381 0.28979,-0.69605 z m -3.07253,6.89988 c -0.0447,0.0923 -0.0919,0.18382 -0.13677,0.27636 0.0447,-0.0923 0.0921,-0.18362 0.13677,-0.27636 z m 45.48138,-57.72447 c 1.04739,0.56014 2.08523,1.13538 3.11794,1.72206 -1.03246,-0.58644 -2.07092,-1.16196 -3.11794,-1.72206 z m -48.67805,63.96121 c -0.0835,0.15204 -0.16173,0.30701 -0.24543,0.45919 0.0836,-0.15227 0.16232,-0.3068 0.24543,-0.45919 z m -3.61719,6.25717 c -0.16333,0.26651 -0.33021,0.53074 -0.4955,0.79618 0.16519,-0.26531 0.33226,-0.5298 0.4955,-0.79618 z m -13.69759,18.60124 c 0.21485,-0.24523 0.43495,-0.48646 0.6478,-0.73301 -0.21236,0.2469 -0.4332,0.48762 -0.6478,0.73301 z m 5.48956,-6.68867 c -0.21691,0.28263 -0.43268,0.56542 -0.65215,0.84648 0.21955,-0.28085 0.4361,-0.56333 0.65215,-0.84648 z m 66.7113,-78.60252 c 0.79324,0.478 1.5865,0.95402 2.37028,1.44768 -0.78358,-0.49341 -1.57727,-0.96987 -2.37028,-1.44768 z m 6.62201,4.23461 c 0.77044,0.52501 1.52903,1.06645 2.28891,1.6072 -0.75981,-0.54057 -1.5188,-1.08202 -2.28891,-1.6072 z m 5.19296,3.73219 c 0.96338,0.72466 1.9193,1.45835 2.8641,2.20847 -0.94508,-0.74946 -1.901,-1.48374 -2.8641,-2.20847 z m 5.97162,4.74076 c 0.72849,0.61203 1.45199,1.22867 2.16821,1.85619 -0.71579,-0.62724 -1.44014,-1.24443 -2.16821,-1.85619 z m 5.82661,5.1706 c 0.67914,0.63935 1.34225,1.29593 2.00906,1.94953 -0.66662,-0.65346 -1.33013,-1.31033 -2.00906,-1.94953 z m 4.5627,4.5165 c 0.62584,0.64628 1.25557,1.28738 1.86938,1.94655 -0.61358,-0.659 -1.24378,-1.30047 -1.86938,-1.94655 z m 5.32494,5.81094 c 0.61589,0.71326 1.21949,1.43755 1.82152,2.16446 -0.60185,-0.72693 -1.20579,-1.45119 -1.82152,-2.16446 z m 4.15655,5.07139 c 0.81721,1.04311 1.61972,2.09826 2.40849,3.16747 -0.78851,-1.06901 -1.59159,-2.12456 -2.40849,-3.16747 z m 4.54663,6.14005 c 0.55766,0.79967 1.11169,1.60109 1.65338,2.41436 -0.54139,-0.81319 -1.09601,-1.61487 -1.65338,-2.41436 z m 4.4338,6.75668 c 0.51306,0.8369 1.0058,1.68899 1.50216,2.53902 -0.49618,-0.8499 -0.98926,-1.70225 -1.50216,-2.53902 z" />
    <path
       id="path3"
       style="opacity:0.982;fill:#ff0000;stroke-width:1.80932"
       d="m 423.09501,352.96776 a 70.101128,69.364685 73.836708 0 1 -47.10839,86.63964 70.101128,69.364685 73.836708 0 1 -86.13732,-48.02074 70.101128,69.364685 73.836708 0 1 47.10841,-86.63963 70.101128,69.364685 73.836708 0 1 86.1373,48.02073 z" />
  </g>
</svg>
